# xmcd
#
# Track frame offsets:
#	150
#	16098
#	30246
#	47994
#	68967
#	84765
#	106788
#	126111
#	139584
#	158532
#	172530
#	188553
#	201876
#	222324
#	239847
#	256020
#	273468
#	294291
#
# Disc length: 4169 seconds
#
# Revision: 1
# Processed by: cddbd v1.5.2PL0 Copyright (c) Steve Scherf et al.
# Submitted via: audiograbber 1.83.01
#
DISCID=e6104712
DTITLE=Alabama - Livin' Lovin' Rockin' Rollin' - The 25th Anniversary Collectio
DTITLE=n - Disc 2
DYEAR=1900
DGENRE=
TTITLE0=Feels So Right
TTITLE1=Old Flame
TTITLE2=Lady Down On Love
TTITLE3=Very Special Love
TTITLE4=Close Enough To Perfect
TTITLE5=Take Me Down
TTITLE6=Medley - Deep River Woman - When We Make Love
TTITLE7=Face To Face (alternate version)
TTITLE8=You've Got The Touch
TTITLE9=You Turn Me On
TTITLE10=Forever's As Far As I'll Go
TTITLE11=How Do You Fall In Love
TTITLE12=I Just Couldn't Say No
TTITLE13=Too Much Love
TTITLE14=If I Had You
TTITLE15=The Woman He Loves
TTITLE16=God Must Have Spent A Little More Time On You (Featuring 'N Sync)
TTITLE17=Angels Among Us
EXTD=
EXTT0=
EXTT1=
EXTT2=
EXTT3=
EXTT4=
EXTT5=
EXTT6=
EXTT7=
EXTT8=
EXTT9=
EXTT10=
EXTT11=
EXTT12=
EXTT13=
EXTT14=
EXTT15=
EXTT16=
EXTT17=
PLAYORDER=
